<svg width="60" height="40" viewBox="0 0 60 40" fill="none" xmlns="http://www.w3.org/2000/svg">
<ellipse opacity="0.246452" cx="39.9271" cy="20" rx="19.1402" ry="20" fill="black" fill-opacity="0.4"/>
<path fill-rule="evenodd" clip-rule="evenodd" d="M36.3794 26.7071C36.0056 26.3166 36.0056 25.6834 36.3794 25.2929L40.4877 21H1.64671C1.11816 21 0.689697 20.5523 0.689697 20C0.689697 19.4477 1.11816 19 1.64671 19H40.4877L36.3794 14.7071C36.0056 14.3166 36.0056 13.6834 36.3794 13.2929C36.7531 12.9024 37.3591 12.9024 37.7328 13.2929L43.4748 19.2929C43.5735 19.396 43.6461 19.5159 43.6927 19.6439C43.7233 19.728 43.7427 19.8156 43.7508 19.9041C43.7537 19.936 43.7551 19.968 43.7551 20C43.7551 20.0228 43.7544 20.0455 43.7529 20.0683C43.7464 20.169 43.7256 20.2657 43.6927 20.3561C43.6461 20.4841 43.5735 20.604 43.4748 20.7071L37.7328 26.7071C37.3591 27.0976 36.7531 27.0976 36.3794 26.7071Z" fill="white"/>
</svg>
